<svg width="829" height="2006" viewBox="0 0 829 2006" fill="none" xmlns="http://www.w3.org/2000/svg">
  <g style="mix-blend-mode:overlay">
    <path opacity="0.4" d="M47.5003 300.906V300.906C290.434 277.587 535.087 321.862 754.441 428.843L805.5 453.745" stroke="#2a6ec8" stroke-width="4" stroke-dasharray="30 20" />
    <path opacity="0.4" d="M15.0001 678.5V678.5C231.829 487.867 525.086 407.697 808.866 460.841V460.841" stroke="#2a6ec8" stroke-width="4" stroke-dasharray="30 20" />
    <path opacity="0.4" d="M24.0001 685.906V685.906C265.567 662.718 508.321 715.894 718.072 837.946L795.5 883" stroke="#2a6ec8" stroke-width="4" stroke-dasharray="30 20" />
    <path opacity="0.4" d="M2.00013 1146V1146C199.879 930.414 495.578 833.157 782.795 889.192L789.5 890.4" stroke="#2a6ec8" stroke-width="4" stroke-dasharray="30 20" />
    <path opacity="0.4" d="M37.5001 1514.94V1514.94C295.815 1452.92 568.273 1515.24 773.945 1683.38L809 1712.04" stroke="#2a6ec8" stroke-width="4" stroke-dasharray="30 20" />
    <path opacity="0.4" d="M13.4999 1150.94V1150.94C256.807 1127.59 501.954 1169.2 723.929 1271.52L828 1319.5" stroke="#2a6ec8" stroke-width="4" stroke-dasharray="30 20" />
    <path opacity="0.4" d="M33.5003 1507V1507C209.485 1352.36 442.88 1279.77 675.528 1307.31L825 1325" stroke="#2a6ec8" stroke-width="4" stroke-dasharray="30 20" />
  </g>
  <g style="mix-blend-mode:overlay" opacity="0.4">
    <path opacity="0.4" d="M47.5003 300.906V300.906C290.434 277.587 535.087 321.862 754.441 428.843L805.5 453.745" stroke="#2a6ec8" stroke-width="4" stroke-dasharray="30 20" />
    <path opacity="0.4" d="M15.0001 678.5V678.5C231.829 487.867 525.086 407.697 808.866 460.841V460.841" stroke="#2a6ec8" stroke-width="4" stroke-dasharray="30 20" />
    <path opacity="0.4" d="M24.0001 685.906V685.906C265.567 662.718 508.321 715.894 718.072 837.946L795.5 883" stroke="#2a6ec8" stroke-width="4" stroke-dasharray="30 20" />
    <path opacity="0.4" d="M2.00013 1146V1146C199.879 930.414 495.578 833.157 782.795 889.192L789.5 890.4" stroke="#2a6ec8" stroke-width="4" stroke-dasharray="30 20" />
    <path opacity="0.4" d="M37.5001 1514.94V1514.94C295.815 1452.92 568.273 1515.24 773.945 1683.38L809 1712.04" stroke="#2a6ec8" stroke-width="4" stroke-dasharray="30 20" />
    <path opacity="0.4" d="M13.4999 1150.94V1150.94C256.807 1127.59 501.954 1169.2 723.929 1271.52L828 1319.5" stroke="#2a6ec8" stroke-width="4" stroke-dasharray="30 20" />
    <path opacity="0.4" d="M33.5003 1507V1507C209.485 1352.36 442.88 1279.77 675.528 1307.31L825 1325" stroke="#2a6ec8" stroke-width="4" stroke-dasharray="30 20" />
  </g>
  <g style="mix-blend-mode:overlay" opacity="0.4">
    <path opacity="0.4" d="M47.5003 300.906V300.906C290.434 277.587 535.087 321.862 754.441 428.843L805.5 453.745" stroke="#2a6ec8" stroke-width="4" stroke-dasharray="30 20" />
    <path opacity="0.4" d="M15.0001 678.5V678.5C231.829 487.867 525.086 407.697 808.866 460.841V460.841" stroke="#2a6ec8" stroke-width="4" stroke-dasharray="30 20" />
    <path opacity="0.4" d="M24.0001 685.906V685.906C265.567 662.718 508.321 715.894 718.072 837.946L795.5 883" stroke="#2a6ec8" stroke-width="4" stroke-dasharray="30 20" />
    <path opacity="0.4" d="M2.00013 1146V1146C199.879 930.414 495.578 833.157 782.795 889.192L789.5 890.4" stroke="#2a6ec8" stroke-width="4" stroke-dasharray="30 20" />
    <path opacity="0.4" d="M37.5001 1514.94V1514.94C295.815 1452.92 568.273 1515.24 773.945 1683.38L809 1712.04" stroke="#2a6ec8" stroke-width="4" stroke-dasharray="30 20" />
    <path opacity="0.4" d="M13.4999 1150.94V1150.94C256.807 1127.59 501.954 1169.2 723.929 1271.52L828 1319.5" stroke="#2a6ec8" stroke-width="4" stroke-dasharray="30 20" />
    <path opacity="0.4" d="M33.5003 1507V1507C209.485 1352.36 442.88 1279.77 675.528 1307.31L825 1325" stroke="#2a6ec8" stroke-width="4" stroke-dasharray="30 20" />
  </g>
</svg>