<svg width="381" height="1101" viewBox="0 0 381 1101" fill="none" xmlns="http://www.w3.org/2000/svg">
  <g style="mix-blend-mode:overlay">
    <path opacity="0.2" d="M22.8219 165.008V165.008C133.986 152.221 243.978 175.344 340.4 231.812L369.704 248.82" stroke="#2a6ec8" stroke-width="4" stroke-dasharray="30 20" />
    <path opacity="0.2" d="M7.94941 372.069L16.7894 362.756C110.521 264.008 241.029 223.491 371.245 252.712V252.712" stroke="#2a6ec8" stroke-width="4" stroke-dasharray="30 20" />
    <path opacity="0.2" d="M12.0678 376.131V376.131C122.632 363.413 231.548 391.07 323.562 455.229L365.128 484.211" stroke="#2a6ec8" stroke-width="4" stroke-dasharray="30 20" />
    <path opacity="0.2" d="M1.99995 628.432L8.98166 619.318C95.3758 506.529 228.764 457.086 362.382 488.324V488.324" stroke="#2a6ec8" stroke-width="4" stroke-dasharray="30 20" />
    <path opacity="0.2" d="M18.2455 830.75V830.75C136.505 796.725 257.997 827.829 346.86 914.883L371.306 938.83" stroke="#2a6ec8" stroke-width="4" stroke-dasharray="30 20" />
    <path opacity="0.2" d="M7.26326 631.143V631.143C118.593 618.338 228.877 640.094 326.784 694.177L380.001 723.575" stroke="#2a6ec8" stroke-width="4" stroke-dasharray="30 20" />
    <path opacity="0.2" d="M16.4148 826.394V826.394C97.0487 741.491 207.102 702.26 319.801 718.246L378.627 726.591" stroke="#2a6ec8" stroke-width="4" stroke-dasharray="30 20" />
  </g>
  <g style="mix-blend-mode:overlay" opacity="0.5">
    <path opacity="0.2" d="M22.8219 165.008V165.008C133.986 152.221 243.978 175.344 340.4 231.812L369.704 248.82" stroke="#2a6ec8" stroke-width="4" stroke-dasharray="30 20" />
    <path opacity="0.2" d="M7.94941 372.069L16.7894 362.756C110.521 264.008 241.029 223.491 371.245 252.712V252.712" stroke="#2a6ec8" stroke-width="4" stroke-dasharray="30 20" />
    <path opacity="0.2" d="M12.0678 376.131V376.131C122.632 363.413 231.548 391.07 323.562 455.229L365.128 484.211" stroke="#2a6ec8" stroke-width="4" stroke-dasharray="30 20" />
    <path opacity="0.2" d="M1.99995 628.432L8.98166 619.318C95.3758 506.529 228.764 457.086 362.382 488.324V488.324" stroke="#2a6ec8" stroke-width="4" stroke-dasharray="30 20" />
    <path opacity="0.2" d="M18.2455 830.75V830.75C136.505 796.725 257.997 827.829 346.86 914.883L371.306 938.83" stroke="#2a6ec8" stroke-width="4" stroke-dasharray="30 20" />
    <path opacity="0.2" d="M7.26326 631.143V631.143C118.593 618.338 228.877 640.094 326.784 694.177L380.001 723.575" stroke="#2a6ec8" stroke-width="4" stroke-dasharray="30 20" />
    <path opacity="0.2" d="M16.4148 826.394V826.394C97.0487 741.491 207.102 702.26 319.801 718.246L378.627 726.591" stroke="#2a6ec8" stroke-width="4" stroke-dasharray="30 20" />
  </g>
  <g style="mix-blend-mode:overlay" opacity="0.2">
    <path opacity="0.2" d="M22.8219 165.008V165.008C133.986 152.221 243.978 175.344 340.4 231.812L369.704 248.82" stroke="#2a6ec8" stroke-width="4" stroke-dasharray="30 20" />
    <path opacity="0.2" d="M7.94941 372.069L16.7894 362.756C110.521 264.008 241.029 223.491 371.245 252.712V252.712" stroke="#2a6ec8" stroke-width="4" stroke-dasharray="30 20" />
    <path opacity="0.2" d="M12.0678 376.131V376.131C122.632 363.413 231.548 391.07 323.562 455.229L365.128 484.211" stroke="#2a6ec8" stroke-width="4" stroke-dasharray="30 20" />
    <path opacity="0.2" d="M1.99995 628.432L8.98166 619.318C95.3758 506.529 228.764 457.086 362.382 488.324V488.324" stroke="#2a6ec8" stroke-width="4" stroke-dasharray="30 20" />
    <path opacity="0.2" d="M18.2455 830.75V830.75C136.505 796.725 257.997 827.829 346.86 914.883L371.306 938.83" stroke="#2a6ec8" stroke-width="4" stroke-dasharray="30 20" />
    <path opacity="0.2" d="M7.26326 631.143V631.143C118.593 618.338 228.877 640.094 326.784 694.177L380.001 723.575" stroke="#2a6ec8" stroke-width="4" stroke-dasharray="30 20" />
    <path opacity="0.2" d="M16.4148 826.394V826.394C97.0487 741.491 207.102 702.26 319.801 718.246L378.627 726.591" stroke="#2a6ec8" stroke-width="4" stroke-dasharray="30 20" />
  </g>
</svg>