<svg width="162" height="465" viewBox="0 0 162 465" fill="none" xmlns="http://www.w3.org/2000/svg">
  <g style="mix-blend-mode:overlay">
    <path opacity="0.2" d="M10.0907 69.605V69.605C56.9831 64.2113 103.381 73.965 144.139 97.7848L156.416 104.96" stroke="#2a6ec8" stroke-width="2" stroke-dasharray="30 20" />
    <path opacity="0.2" d="M3.81593 156.949L7.54496 153.021C47.0837 111.366 102.136 94.2745 157.064 106.601V106.601" stroke="#2a6ec8" stroke-width="2" stroke-dasharray="30 20" />
    <path opacity="0.2" d="M5.55378 158.663V158.663C52.1928 153.298 98.137 164.965 136.951 192.029L154.485 204.254" stroke="#2a6ec8" stroke-width="2" stroke-dasharray="30 20" />
    <path opacity="0.2" d="M1.30747 265.091L4.25255 261.246C40.6961 213.669 96.9631 192.813 153.327 205.989V205.989" stroke="#2a6ec8" stroke-width="2" stroke-dasharray="30 20" />
    <path opacity="0.2" d="M8.16022 350.434V350.434C58.0455 336.081 109.294 349.202 146.779 385.924L157.091 396.025" stroke="#2a6ec8" stroke-width="2" stroke-dasharray="30 20" />
    <path opacity="0.2" d="M3.52738 266.235V266.235C50.4894 260.833 97.0103 270.011 138.31 292.824L160.759 305.225" stroke="#2a6ec8" stroke-width="2" stroke-dasharray="30 20" />
    <path opacity="0.2" d="M7.3875 348.597V348.597C41.4012 312.782 87.8248 296.234 135.364 302.977L160.179 306.497" stroke="#2a6ec8" stroke-width="2" stroke-dasharray="30 20" />
  </g>
  <g style="mix-blend-mode:overlay" opacity="0.5">
    <path opacity="0.2" d="M10.0907 69.605V69.605C56.9831 64.2113 103.381 73.965 144.139 97.7848L156.416 104.96" stroke="#2a6ec8" stroke-width="2" stroke-dasharray="30 20" />
    <path opacity="0.2" d="M3.81593 156.949L7.54496 153.021C47.0837 111.366 102.136 94.2745 157.064 106.601V106.601" stroke="#2a6ec8" stroke-width="2" stroke-dasharray="30 20" />
    <path opacity="0.2" d="M5.55378 158.663V158.663C52.1928 153.298 98.137 164.965 136.951 192.029L154.485 204.254" stroke="#2a6ec8" stroke-width="2" stroke-dasharray="30 20" />
    <path opacity="0.2" d="M1.30747 265.091L4.25255 261.246C40.6961 213.669 96.9631 192.813 153.327 205.989V205.989" stroke="#2a6ec8" stroke-width="2" stroke-dasharray="30 20" />
    <path opacity="0.2" d="M8.16022 350.434V350.434C58.0455 336.081 109.294 349.202 146.779 385.924L157.091 396.025" stroke="#2a6ec8" stroke-width="2" stroke-dasharray="30 20" />
    <path opacity="0.2" d="M3.52738 266.235V266.235C50.4894 260.833 97.0103 270.011 138.31 292.824L160.759 305.225" stroke="#2a6ec8" stroke-width="2" stroke-dasharray="30 20" />
    <path opacity="0.2" d="M7.3875 348.597V348.597C41.4012 312.782 87.8248 296.234 135.364 302.977L160.179 306.497" stroke="#2a6ec8" stroke-width="2" stroke-dasharray="30 20" />
  </g>
  <g style="mix-blend-mode:overlay" opacity="0.6">
    <path opacity="0.2" d="M10.0907 69.605V69.605C56.9831 64.2113 103.381 73.965 144.139 97.7848L156.416 104.96" stroke="#2a6ec8" stroke-width="2" stroke-dasharray="30 20" />
    <path opacity="0.2" d="M3.81593 156.949L7.54496 153.021C47.0837 111.366 102.136 94.2745 157.064 106.601V106.601" stroke="#2a6ec8" stroke-width="2" stroke-dasharray="30 20" />
    <path opacity="0.2" d="M5.55378 158.663V158.663C52.1928 153.298 98.137 164.965 136.951 192.029L154.485 204.254" stroke="#2a6ec8" stroke-width="2" stroke-dasharray="30 20" />
    <path opacity="0.2" d="M1.30747 265.091L4.25255 261.246C40.6961 213.669 96.9631 192.813 153.327 205.989V205.989" stroke="#2a6ec8" stroke-width="2" stroke-dasharray="30 20" />
    <path opacity="0.2" d="M8.16022 350.434V350.434C58.0455 336.081 109.294 349.202 146.779 385.924L157.091 396.025" stroke="#2a6ec8" stroke-width="2" stroke-dasharray="30 20" />
    <path opacity="0.2" d="M3.52738 266.235V266.235C50.4894 260.833 97.0103 270.011 138.31 292.824L160.759 305.225" stroke="#2a6ec8" stroke-width="2" stroke-dasharray="30 20" />
    <path opacity="0.2" d="M7.3875 348.597V348.597C41.4012 312.782 87.8248 296.234 135.364 302.977L160.179 306.497" stroke="#2a6ec8" stroke-width="2" stroke-dasharray="30 20" />
  </g>
</svg>